<?xml version="1.0" encoding="utf-8"?>
<!-- Generator: Adobe Illustrator 19.0.0, SVG Export Plug-In . SVG Version: 6.00 Build 0)  -->
<svg version="1.1" id="Layer_1" xmlns="http://www.w3.org/2000/svg" xmlns:xlink="http://www.w3.org/1999/xlink" x="0px" y="0px" viewBox="0 0 204.5 51.7" style="enable-background:new 0 0 204.5 51.7;" xml:space="preserve">
	<g transform="matrix(1.2982796249775401,0,0,1.2982796249775401,-16.214215890494106,-14.561829140806958)" fill="#9352b3">
		<path xmlns="http://www.w3.org/2000/svg" d="M76.509,92.632c-2.197-0.407-4.389-0.85-6.592-1.215C59.29,89.66,48.662,87.92,38.032,86.179  c-8.29-1.358-16.581-2.707-24.871-4.062c-0.198-0.032-0.389-0.098-0.672-0.17c2.406-14.675,4.804-29.304,7.192-43.876  c0.246-0.051,0.328-0.094,0.401-0.08c1.839,0.326,4.056,0.145,5.406,1.138c1.302,0.96,1.718,3.132,2.502,4.781  c0.875,1.839,1.746,3.682,2.583,5.54c0.331,0.736,0.732,1.158,1.632,1.25c1.763,0.179,3.508,0.549,5.521,0.882  c-1.857-3.903-3.615-7.599-5.495-11.552c1.569,0.231,2.924,0.566,4.286,0.603c2.197,0.059,3.35,1.119,4.133,3.136  c1.065,2.747,2.469,5.362,3.702,8.044c0.301,0.657,0.67,1.021,1.462,1.114c1.801,0.209,3.587,0.565,5.635,0.904  c-1.861-3.912-3.622-7.608-5.499-11.553c1.515,0.224,2.827,0.531,4.152,0.59c2.172,0.097,3.475,0.988,4.269,3.133  c1.02,2.76,2.467,5.36,3.694,8.044c0.326,0.713,0.743,1.051,1.572,1.143c1.765,0.195,3.511,0.555,5.533,0.891  c-1.863-3.92-3.619-7.614-5.512-11.594c2.453,0.407,4.68,0.746,6.888,1.182c0.288,0.057,0.534,0.585,0.702,0.941  c1.535,3.23,3.063,6.464,4.56,9.712c0.306,0.664,0.675,1.017,1.46,1.108c1.806,0.211,3.594,0.56,5.624,0.891  c-1.866-3.92-3.625-7.618-5.501-11.562c2.047,0.316,3.872,0.599,5.697,0.881c0.037-0.069,0.073-0.138,0.11-0.206  c-1.556-0.951-3.111-1.901-4.864-2.972c1.323-0.603,2.475-1.127,3.626-1.652c2.346-1.071,4.708-2.109,7.029-3.231  c0.764-0.37,1.352-0.361,2.05,0.117c0.783,0.537,1.646,0.954,2.475,1.424c0,0.083,0,0.167,0,0.25  c-1.686,2.761-3.379,5.518-5.049,8.29c-0.162,0.269-0.198,0.625-0.25,0.947c-1.49,9.013-2.972,18.027-4.46,27.04  c-0.825,4.997-1.662,9.995-2.495,14.991C77.01,92.632,76.76,92.632,76.509,92.632z M77.876,62.281  c-18.855-3.089-37.531-6.149-56.265-9.218c-0.218,1.376-0.405,2.549-0.609,3.831c18.781,3.077,37.466,6.14,56.237,9.216  C77.452,64.828,77.648,63.652,77.876,62.281z M73.688,87.677c0.196-1.061,0.334-1.962,0.536-2.849c0.168-0.74-0.091-1.043-0.83-1.16  c-4.722-0.748-9.44-1.526-14.159-2.299c-10.464-1.711-20.928-3.424-31.392-5.136c-3.228-0.528-6.458-1.054-9.764-1.594  c-0.209,1.32-0.401,2.53-0.606,3.825C36.257,81.544,54.916,84.601,73.688,87.677z"></path>
		<path xmlns="http://www.w3.org/2000/svg" d="M27.738,16.463c1.826-3.034,3.619-6.013,5.476-9.098c3.761,2.258,7.45,4.473,11.34,6.809  c-0.672,0.319-1.163,0.559-1.661,0.787c-3.022,1.384-6.054,2.75-9.063,4.159c-0.664,0.312-1.188,0.353-1.837-0.073  C30.642,18.159,29.23,17.361,27.738,16.463z"></path>
		<path xmlns="http://www.w3.org/2000/svg" d="M62.407,37.289c3.837-1.75,7.428-3.398,11.032-5.015c0.304-0.138,0.786-0.222,1.04-0.078  c1.905,1.09,3.775,2.246,5.843,3.493c-3.31,1.516-6.477,2.851-9.528,4.411c-1.598,0.817-2.854,0.822-4.288-0.284  C65.301,38.889,63.911,38.202,62.407,37.289z"></path>
		<path xmlns="http://www.w3.org/2000/svg" d="M56.502,21.359c-3.923,1.788-7.573,3.465-11.242,5.1c-0.277,0.123-0.748,0.056-1.026-0.104  c-1.834-1.057-3.638-2.163-5.656-3.376c1.504-0.692,2.833-1.305,4.163-1.916c2.265-1.039,4.525-2.09,6.805-3.095  c0.331-0.146,0.849-0.233,1.127-0.076C52.551,18.955,54.388,20.089,56.502,21.359z"></path>
		<path xmlns="http://www.w3.org/2000/svg" d="M68.414,28.524c-2.925,1.336-5.795,2.379-8.382,3.904c-2.47,1.456-4.469,1.282-6.584-0.48  c-0.814-0.678-1.82-1.124-2.914-1.781c0.603-0.304,1.024-0.533,1.459-0.732c3.061-1.399,6.136-2.769,9.18-4.203  c0.713-0.335,1.244-0.373,1.939,0.08C64.78,26.4,66.516,27.384,68.414,28.524z"></path>
	</g>
	<g transform="matrix(1,0,0,1,355,5)" fill="#000000">
		<rect xmlns="http://www.w3.org/2000/svg" y="0" height="1" width="1" opacity="0"></rect>
		<rect xmlns="http://www.w3.org/2000/svg" y="0" x="-235" width="3" height="102"></rect>
	</g>
	<g transform="matrix(2.391200400041522,0,0,2.391200400041522,138.14347302739012,24.700622702356373)" fill="#000000">
		<path d="M9.66 15.440000000000001 c-1.26 0.82 -1.88 1.06 -2.74 1.06 c-0.6 0 -1.16 -0.16 -1.7 -0.48 c-1.06 -0.64 -1.78 -1.8 -1.78 -3 c0 -0.64 0.16 -1.24 0.48 -1.78 c0.62 -1.08 1.8 -1.72 3 -1.72 c0.76 0 1.44 0.22 2.02 0.64 c0.1 0.06 0.22 0.14 0.36 0.28 l0.3 0.22 l1.34 -1.58 l-0.22 -0.22 c-0.14 -0.14 -0.32 -0.26 -0.54 -0.4 c-0.94 -0.72 -2.04 -1.08 -3.26 -1.08 c-1.5 0 -2.88 0.58 -3.98 1.64 c-1.06 1.12 -1.66 2.5 -1.66 4 s0.6 2.92 1.66 3.98 s2.48 1.66 3.98 1.66 c1.08 0 2.08 -0.3 3.02 -0.9 l-0.4 -0.6 c-0.82 0.54 -1.68 0.8 -2.62 0.8 c-1.3 0 -2.54 -0.52 -3.48 -1.46 s-1.44 -2.18 -1.44 -3.48 s0.5 -2.52 1.44 -3.46 c0.94 -0.96 2.18 -1.46 3.48 -1.46 c0.98 0 1.92 0.3 2.86 0.92 l0.16 0.14 l-0.44 0.5 c-0.06 -0.02 -0.1 -0.04 -0.14 -0.08 c-0.74 -0.5 -1.56 -0.76 -2.44 -0.76 c-0.78 0 -1.48 0.18 -2.1 0.54 c-1.26 0.74 -2.1 2.2 -2.1 3.66 c0 0.7 0.2 1.4 0.58 2.06 c0.78 1.34 2.2 2.16 3.62 2.16 c0.94 0 1.7 -0.28 2.84 -1 l1.12 1.66 c-1.46 0.96 -2.6 1.36 -3.96 1.36 c-1.12 0 -2.16 -0.28 -3.12 -0.84 c-1.94 -1.12 -3.14 -3.16 -3.14 -5.4 c0 -1.12 0.28 -2.16 0.84 -3.14 c1.12 -1.92 3.18 -3.12 5.42 -3.12 c1.58 0 3.08 0.58 4.22 1.64 l0.12 0.1 l0.16 0.16 l0.5 -0.52 l-0.28 -0.28 c-1.28 -1.14 -2.96 -1.8 -4.72 -1.8 c-1.26 0 -2.42 0.3 -3.48 0.92 c-2.12 1.22 -3.5 3.56 -3.5 6.04 c0 1.22 0.32 2.38 0.96 3.46 c1.26 2.16 3.52 3.52 6.02 3.52 c1.58 0 2.9 -0.5 4.68 -1.72 l0.28 -0.18 l-1.9 -2.86 z M13.02 6 l2.1 0 l0 12.66 l-0.72 0 l0 -11.94 l-0.66 0 l0 12.56 l2.02 0 l0 -13.28 l0.72 0 l0 14 l-3.46 0 l0 -14 z M27.759999999999998 14.3 l-8.18 -8.3 l-1 0 l9.9 10.06 l0 -8.66 l-0.72 0 l0 6.9 z M27.099999999999998 12.7 l0 -6 l2.04 0 l0 12.58 l-0.34 0 l-0.08 -0.08 l-9.16 -9.28 l0 10.08 l2.1 0 l0 -5.9 l-0.74 -0.76 l0 5.94 l-0.64 0 l0 -7.6 l8.3 8.32 l1.28 0 l0 -14 l-3.48 0 l0 5.92 z M18.9 20 l0 -11.7 l9.58 9.72 l0 -1.06 l-10.28 -10.38 l0 13.42 l0.7 0 z M31.24 6.039999999999999 l0.72 0 l0 13.24 l7.66 0 l0 -2 l-5.64 0 l0 -1.92 l0.72 0 l0 1.2 l5.64 0 l0 3.44 l-9.1 0 l0 -13.96 z M32.6 6.039999999999999 l7.64 0 l0 3.42 l-4.8 0 l0 -0.72 l4.08 0 l0 -1.98 l-6.2 0 l0 5.78 l4.66 0 l0 0.72 l-5.38 0 l0 -7.22 z M32.6 13.9 l6.08 0 l0 -2 l-4.7 0 l0 -4.54 l4.84 0 l0 0.72 l-4.12 0 l0 3.1 l4.7 0 l0 3.44 l-6.08 0 l0 3.32 l5.6 0 l0 0.72 l-6.32 0 l0 -4.76 z M44.32 5.98 l5.8 10.9 l2.42 -4.48 l1.16 7.6 l0.72 0 l-1.5 -9.84 l-2.8 5.18 l-4.98 -9.36 l-0.82 0 z M50.7 11.36 l-0.94 1.74 l0.42 0.76 l1.32 -2.5 l1.76 -3.28 l0.06 -0.14 l0.66 -1.22 l0.48 0 l0.06 0.48 l1.5 9.76 l0.34 2.3 l-0.66 0 l-1.52 -9.9 l-0.18 -1.2 l-0.56 1.06 l1.6 10.48 l-0.02 0 l0.06 0.3 l2.12 0 l-2.12 -14.02 l-1.54 0 z M49.480000000000004 17.06 l-5.74 -10.82 l-0.12 -0.2 l-2.12 13.96 l3.5 0 l0.64 -4.14 l-0.42 -0.78 l-0.16 -0.3 l-0.68 4.48 l-2.04 0 l1.68 -10.96 l6.12 11.52 l2.18 -4.14 l-0.16 -1.06 l-0.02 -0.14 l-2 3.8 z M44.74 12.620000000000001 l3.92 7.38 l0.82 0 l-5.12 -9.62 l-1.3 8.36 l0.72 0 z M60.28 18.76 l0.88 0 l0.7 -1.68 l5.22 0.02 l1.28 2.9 l3.68 -0.02 l-6.3 -13.98 l-1.28 0 l-6.26 13.98 l3.9 0 l0.68 -1.6 l3.98 0 l-0.3 -0.68 l-4.12 0 l-0.64 1.58 l-2.38 0 l5.54 -12.6 l0.48 0 l5.56 12.6 l-2.12 0 l-1.28 -2.86 l-6.2 0 z M62.660000000000004 15.24 l2.44 -5.82 l4.1 9.32 l0.82 0 l-4.92 -10.96 l-3.6 8.08 l5.8 0 l-2.2 -4.86 l-1.52 3.66 l0.78 0 l0.74 -1.82 l1.1 2.4 l-3.54 0 z M78.08000000000001 8.6 l4.78 0 l0 -1.9 l-8.5 0 l0 0.62 l7.82 0 l0 0.72 l-8.54 0 l0 -2.06 l9.94 0 l0 3.34 l-4.78 0 l0 9.36 l-0.72 0 l0 -10.08 z M76.74000000000001 9.32 l-3.1 0 l0 -0.72 l3.82 0 l0 10.66 l2 0 l0 -9.32 l0.72 0 l0 10.06 l-3.44 0 l0 -10.68 z"></path>
	</g>
</svg>